# xmcd CD database file
#
# Track frame offsets:
#	150
#	15940
#	34010
#	46395
#	58025
#	73377
#	84715
#	96377
#	112475
#	128082
#	140487
#	155307
#	165867
#	180125
#	192335
#	205115
#	216310
#	229170
#	242127
#	255172
#
# Disc length: 3611 seconds
#
# Revision: 0
# Processed by: cddbd v1.5.1PL2 Copyright (c) Steve Scherf et al.
# Submitted via: CDex 1.51
#
DISCID=140e1914
DTITLE=Sam Taylor, Sil Austin - HIT TUNES
DYEAR=1900
DGENRE=Jazz
TTITLE0=Harlem Nocturne
TTITLE1=Danny Boy
TTITLE2=Stardust
TTITLE3=Ebb Tide
TTITLE4=Misty
TTITLE5=Red Sales in the Sunset
TTITLE6=Summertime
TTITLE7=The Rose Tatto
TTITLE8=Johnny Guitar
TTITLE9=September Song
TTITLE10=When I fall in love
TTITLE11=Moolight in Vermont
TTITLE12=Moon Glow
TTITLE13=My Foolish Heart
TTITLE14=Cry Me A River
TTITLE15=Nature Boy
TTITLE16=Stormy Weather
TTITLE17=I can't get started
TTITLE18=Round Midnight
TTITLE19=Broken Promises
EXTD=
EXTT0=
EXTT1=
EXTT2=
EXTT3=
EXTT4=
EXTT5=
EXTT6=
EXTT7=
EXTT8=
EXTT9=
EXTT10=
EXTT11=
EXTT12=
EXTT13=
EXTT14=
EXTT15=
EXTT16=
EXTT17=
EXTT18=
EXTT19=
PLAYORDER=
